<?xml version="1.0" encoding="utf-8"?>
<!-- Generator: Adobe Illustrator 25.4.1, SVG Export Plug-In . SVG Version: 6.00 Build 0)  -->
<svg version="1.1" id="Layer_1" xmlns="http://www.w3.org/2000/svg" xmlns:xlink="http://www.w3.org/1999/xlink" x="0px" y="0px"
	 viewBox="0 0 800 800" style="enable-background:new 0 0 800 800;" xml:space="preserve">
<style type="text/css">
	.st0{fill-rule:evenodd;clip-rule:evenodd;}
	.st1{fill-rule:evenodd;clip-rule:evenodd;fill:#FFFFFF;}
</style>
<g id="SVGRepo_bgCarrier">
</g>
<g id="SVGRepo_tracerCarrier">
</g>
<g id="SVGRepo_iconCarrier">
	<path class="st0" d="M400,733.3c184.1,0,333.3-149.2,333.3-333.3c0-184.1-149.2-333.3-333.3-333.3C215.9,66.7,66.7,215.9,66.7,400
		C66.7,584.1,215.9,733.3,400,733.3z M425,300c0-13.8-11.2-25-25-25c-13.8,0-25,11.2-25,25v75h-75c-13.8,0-25,11.2-25,25
		c0,13.8,11.2,25,25,25h75v75c0,13.8,11.2,25,25,25c13.8,0,25-11.2,25-25v-75h75c13.8,0,25-11.2,25-25c0-13.8-11.2-25-25-25h-75V300
		z"/>
</g>
<path class="st1" d="M425,300c0-13.8-11.2-25-25-25c-13.8,0-25,11.2-25,25v75h-75c-13.8,0-25,11.2-25,25s11.2,25,25,25h75v75
	c0,13.8,11.2,25,25,25c13.8,0,25-11.2,25-25v-75h75c13.8,0,25-11.2,25-25s-11.2-25-25-25h-75V300z"/>
</svg>
