<?xml version="1.0" encoding="utf-8"?>
<!-- Generator: Adobe Illustrator 25.4.1, SVG Export Plug-In . SVG Version: 6.00 Build 0)  -->
<svg version="1.1" id="Layer_1" xmlns="http://www.w3.org/2000/svg" xmlns:xlink="http://www.w3.org/1999/xlink" x="0px" y="0px"
	 viewBox="0 0 800 800" style="enable-background:new 0 0 800 800;" xml:space="preserve">
<style type="text/css">
	.st0{fill:#F7F7F7;stroke:#E8E8E8;stroke-width:0.8;stroke-miterlimit:3.2;}
</style>
<g id="SVGRepo_bgCarrier">
</g>
<g id="SVGRepo_tracerCarrier">
</g>
<g id="SVGRepo_iconCarrier">
	<path class="st0" d="M411,678c-50.4,0-97.2-12.7-140.3-38.1c-41.8-24.6-75-57.8-99.6-99.6C145.7,497.2,133,450.4,133,400
		s12.7-97.2,38.1-140.3c24.6-41.8,57.8-75,99.6-99.6C313.8,134.7,360.6,122,411,122s97.2,12.7,140.3,38.1
		c41.8,24.6,75,57.8,99.6,99.6C676.3,302.8,689,349.6,689,400s-12.7,97.2-38.1,140.3c-24.6,41.8-57.8,75-99.6,99.6
		C508.2,665.3,461.4,678,411,678z M294.6,568.1c16.8,12.1,35.2,21.2,55.3,27.5c20,6.2,40.4,9.4,61.1,9.4c37.1,0,71.5-9.5,103.4-28.4
		c30.6-18.1,55-42.5,73.1-73.1c19-31.9,28.4-66.4,28.4-103.4c0-20.7-3.1-41.1-9.4-61.1c-6.2-20-15.4-38.5-27.5-55.3L294.6,568.1z
		 M411,195.1c-37.1,0-71.5,9.5-103.4,28.4c-30.6,18.1-55,42.5-73.1,73.1c-19,31.9-28.4,66.4-28.4,103.4c0,20.7,3.1,41.1,9.4,61.1
		c6.2,20,15.4,38.5,27.5,55.3l284.5-284.5c-16.8-12.1-35.2-21.2-55.3-27.5C452.1,198.2,431.7,195.1,411,195.1z"/>
</g>
</svg>
