<?xml version="1.0" encoding="utf-8"?>
<!-- Generator: Adobe Illustrator 25.4.1, SVG Export Plug-In . SVG Version: 6.00 Build 0)  -->
<svg version="1.1" id="Layer_1" xmlns="http://www.w3.org/2000/svg" xmlns:xlink="http://www.w3.org/1999/xlink" x="0px" y="0px"
	 viewBox="0 0 800 800" style="enable-background:new 0 0 800 800;" xml:space="preserve">
<style type="text/css">
	.st0{fill:#F9F9F9;}
</style>
<path class="st0" d="M400,66.7C216.3,66.7,66.7,216.3,66.7,400S216.3,733.3,400,733.3S733.3,583.7,733.3,400S583.7,66.7,400,66.7z
	 M512,476.7c9.7,9.7,9.7,25.7,0,35.3c-5,5-11.3,7.3-17.7,7.3c-6.3,0-12.7-2.3-17.7-7.3L400,435.3L323.3,512c-5,5-11.3,7.3-17.7,7.3
	c-6.3,0-12.7-2.3-17.7-7.3c-9.7-9.7-9.7-25.7,0-35.3l76.7-76.7L288,323.3c-9.7-9.7-9.7-25.7,0-35.3s25.7-9.7,35.3,0l76.7,76.7
	l76.7-76.7c9.7-9.7,25.7-9.7,35.3,0s9.7,25.7,0,35.3L435.3,400L512,476.7z"/>
</svg>
