<?xml version="1.0" encoding="utf-8"?>
<!-- Generator: Adobe Illustrator 25.4.1, SVG Export Plug-In . SVG Version: 6.00 Build 0)  -->
<svg version="1.1" id="Layer_1" xmlns="http://www.w3.org/2000/svg" xmlns:xlink="http://www.w3.org/1999/xlink" x="0px" y="0px"
	 viewBox="0 0 800 800" style="enable-background:new 0 0 800 800;" xml:space="preserve">
<style type="text/css">
	.st0{fill:#EFEFEF;enable-background:new    ;}
	.st1{fill:#515151;}
</style>
<g id="SVGRepo_bgCarrier">
</g>
<g id="SVGRepo_tracerCarrier">
</g>
<g id="SVGRepo_iconCarrier">
	<path class="st0" d="M400,733.3c184.1,0,333.3-149.2,333.3-333.3c0-184.1-149.2-333.3-333.3-333.3C215.9,66.7,66.7,215.9,66.7,400
		C66.7,584.1,215.9,733.3,400,733.3z"/>
	<path class="st1" d="M496.6,374.1c17.8-4.8,26.4-30.2,19.3-56.9c-7.1-26.7-27.4-44.4-45.1-39.7c-17.8,4.8-26.4,30.3-19.3,56.9
		C458.6,361.1,478.8,378.9,496.6,374.1z"/>
	<path class="st1" d="M303.4,425.9c17.8-4.8,26.4-30.2,19.3-56.9c-7.1-26.7-27.4-44.4-45.1-39.7c-17.8,4.8-26.4,30.3-19.3,56.9
		C265.4,412.9,285.6,430.7,303.4,425.9z"/>
	<path class="st1" d="M272.8,525c3.4-13.4,16.9-21.5,30.3-18.2c37.7,9.4,80.9,9.6,124.9-2.2c43.9-11.8,81.3-33.5,109.2-60.5
		c9.9-9.6,25.7-9.3,35.4,0.6c9.6,9.9,9.3,25.7-0.6,35.4c-11.6,11.2-24.4,21.6-38.3,31l5.3,10.7c12.3,25,1.7,55.3-23.5,67.2
		c-24.7,11.7-54.2,1.4-66.3-23.2l-6.5-13.3l-1.8,0.5c-51.8,13.9-103.8,14-150,2.4C277.6,552,269.5,538.4,272.8,525z"/>
</g>
</svg>
