<?xml version="1.0" encoding="utf-8"?>
<!-- Generator: Adobe Illustrator 25.4.1, SVG Export Plug-In . SVG Version: 6.00 Build 0)  -->
<svg version="1.1" id="Capa_1" xmlns="http://www.w3.org/2000/svg" xmlns:xlink="http://www.w3.org/1999/xlink" x="0px" y="0px"
	 viewBox="0 0 800 800" style="enable-background:new 0 0 800 800;" xml:space="preserve">
<style type="text/css">
	.st0{fill:#EAEAEA;}
</style>
<g id="SVGRepo_bgCarrier">
</g>
<g id="SVGRepo_tracerCarrier">
</g>
<g id="SVGRepo_iconCarrier">
	<g>
		<g>
			<path class="st0" d="M659.1,172.3h-70.6L418.7,27.9c0.9-2.4,1.5-4.9,1.5-7.6C420.2,9.1,411.2,0,400,0s-20.3,9.1-20.3,20.3
				c0,2.7,0.6,5.3,1.5,7.6L211.6,172.3h-70.7c-30.2,0-54.8,24.6-54.8,54.8v518.2c0,30.2,24.6,54.8,54.8,54.8h456.3l116.6-116.6V227
				C713.8,196.8,689.2,172.3,659.1,172.3z M389.7,37.3c3.1,1.8,6.5,3.2,10.3,3.2s7.2-1.4,10.3-3.2l158.6,134.9H231.1L389.7,37.3z
				 M379.3,587.9c-4.6,10.8-11,19.5-18.9,26.3c-8,6.8-17.4,11.8-28.3,14.9c-10.9,3.2-22.5,4.8-34.7,4.8c-14.1,0-26.8-1.2-38.1-3.7
				c-11.3-2.5-21-7-29.3-13.5c-8.2-6.5-14.5-15.5-18.9-26.9c-4.4-11.4-6.6-26.1-6.6-44.2h64.6c0,6.4,0.3,12.3,1,18
				c0.6,5.5,1.9,10.4,3.8,14.5c1.8,4.1,4.3,7.4,7.5,10c3.2,2.6,7.3,3.8,12.4,3.8c8.5,0,14.9-2.9,19.1-8.8c4.3-5.9,6.4-16.8,6.4-32.7
				c0-9-0.6-16.4-1.8-22.3c-1.2-5.8-3.2-10.4-6-13.8c-2.8-3.3-6.4-5.6-10.8-6.9c-4.4-1.3-9.9-2-16.5-2h-16v-42.3h18.4
				c11.2,0,18.7-3.6,22.7-10.8c4-7.2,6-17.7,6-31.5c0-11.1-1.8-19.4-5.4-24.5c-3.6-5.1-9.2-7.8-17-7.8c-7.4,0-13.6,2.8-18.5,8.4
				c-4.9,5.6-7.4,16.4-7.4,32.2h-59.8c0-28.1,7.2-48.9,21.5-62.2c14.6-13.8,37.6-20.7,69-20.7c27.9,0,48.6,6.1,62,18.4
				c13.4,12.2,20.1,32,20.1,59.4c0,14.3-3.5,26.6-10.4,36.8c-6.9,10.2-16.9,16.8-29.9,19.7v0.8c16.8,3.7,28.7,11,35.9,21.7
				c7.1,10.8,10.7,26.1,10.7,46C386.2,564.1,383.9,577.1,379.3,587.9z M592.7,546.6c-1.9,17.5-6,32.7-12.4,45.6s-15.7,23-27.9,30.4
				c-12.2,7.5-28.9,11.1-49.8,11.1c-21.3,0-38-3.3-50.3-9.8c-12.2-6.5-21.5-15.9-27.9-28.1c-6.4-12.2-10.4-27.2-12.1-45
				c-1.7-17.8-2.6-38.1-2.6-61c0-20.2,0.9-39.1,2.8-56.5c1.8-17.5,6-32.8,12.3-45.7c6.4-12.9,15.7-23.1,27.9-30.5
				c12.2-7.4,28.8-11.2,49.9-11.2c20.9,0,37.6,3.3,50,9.8c12.4,6.5,21.7,15.9,28.1,28.1c6.4,12.2,10.4,27.3,12.1,45.2
				c1.7,17.9,2.5,38.2,2.5,60.7C595.5,510.2,594.6,529.1,592.7,546.6z"/>
			<path class="st0" d="M524.1,409.1c-1.8-7.7-4.5-13.1-7.9-16.2c-3.5-3-7.9-4.6-13.5-4.6c-5.6,0-10.1,1.6-13.6,4.6
				c-3.5,3.1-6.1,8.5-7.9,16.2c-1.9,7.7-3.1,18.1-3.6,31.3c-0.5,13.2-0.8,29.8-0.8,50c0,19.9,0.3,36.4,0.8,49.4
				c0.5,13,1.7,23.4,3.6,31.1c1.8,7.7,4.5,13.1,7.9,16.1c3.5,3.1,7.9,4.6,13.6,4.6c5.6,0,10-1.6,13.5-4.6c3.5-3,6.1-8.4,7.9-16.1
				c1.9-7.7,3.1-18.1,3.6-31.1c0.5-13,0.8-29.5,0.8-49.4c0-20.2-0.3-36.9-0.8-50C527.2,427.2,526,416.8,524.1,409.1z"/>
		</g>
	</g>
</g>
<path class="st0" d="M651,579C490.3,460,329.7,341,169,222c-1.7-1.7-3.3-3.3-5-5h511C667,337.7,659,458.3,651,579z"/>
</svg>
