<?xml version="1.0" encoding="utf-8"?>
<!-- Generator: Adobe Illustrator 25.4.1, SVG Export Plug-In . SVG Version: 6.00 Build 0)  -->
<svg version="1.1" id="Layer_1" xmlns="http://www.w3.org/2000/svg" xmlns:xlink="http://www.w3.org/1999/xlink" x="0px" y="0px"
	 viewBox="0 0 800 800" style="enable-background:new 0 0 800 800;" xml:space="preserve">
<style type="text/css">
	.st0{fill:#C96706;}
</style>
<g id="SVGRepo_bgCarrier">
</g>
<g id="SVGRepo_tracerCarrier">
</g>
<g id="SVGRepo_iconCarrier">
	<g>
		<path class="st0" d="M244.6,430.8c-21.5-32.3-32.3-69.2-32.3-110.8c0-70.8,29.2-129.2,75.4-164.6c-15.4-27.7-46.2-47.7-86.2-47.7
			c-67.7,0-106.2,55.4-106.2,118.5c0,33.8,10.8,63.1,33.8,83.1c12.3,12.3,23.1,27.7,23.1,43.1s-6.2,30.8-44.6,47.7
			C52.3,424.6,1.5,458.5,0,509.2c1.5,33.8,23.1,60,55.4,60h50.8c7.7,0,15.4-4.6,20-12.3c24.6-44.6,70.8-72.3,109.2-92.3
			C249.2,458.5,252.3,441.5,244.6,430.8z"/>
		<path class="st0" d="M693.8,400c-38.5-16.9-44.6-30.8-44.6-47.7s10.8-32.3,23.1-43.1c23.1-21.5,33.8-49.2,33.8-83.1
			c0-63.1-36.9-118.5-106.2-118.5c-40,0-70.8,20-87.7,47.7c46.2,35.4,75.4,93.8,75.4,164.6c0,41.5-10.8,78.5-32.3,110.8
			c-7.7,12.3-3.1,27.7,9.2,33.8c38.5,18.5,84.6,47.7,109.2,92.3c4.6,7.7,12.3,12.3,20,12.3h50.8c32.3,0,53.8-26.2,53.8-60
			C800,458.5,749.2,424.6,693.8,400z"/>
		<path class="st0" d="M503.1,512.3c-41.5-18.5-49.2-35.4-49.2-52.3c0-18.5,12.3-35.4,26.2-47.7c24.6-23.1,38.5-55.4,38.5-92.3
			c0-69.2-41.5-129.2-116.9-129.2s-116.9,60-116.9,129.2c0,36.9,13.8,69.2,38.5,92.3c13.8,13.8,26.2,30.8,26.2,47.7
			c0,18.5-6.2,33.8-49.2,52.3c-61.5,26.2-120,55.4-121.5,110.8c0,36.9,27.7,67.7,63.1,67.7h160h160c35.4,0,63.1-30.8,63.1-67.7
			C623.1,569.2,564.6,540,503.1,512.3z"/>
	</g>
</g>
</svg>
