<?xml version="1.0" encoding="utf-8"?>
<!-- Generator: Adobe Illustrator 25.4.1, SVG Export Plug-In . SVG Version: 6.00 Build 0)  -->
<svg version="1.1" id="Layer_1" xmlns="http://www.w3.org/2000/svg" xmlns:xlink="http://www.w3.org/1999/xlink" x="0px" y="0px"
	 viewBox="0 0 800 800" style="enable-background:new 0 0 800 800;" xml:space="preserve">
<style type="text/css">
	.st0{fill-rule:evenodd;clip-rule:evenodd;fill:#FAFAFA;}
</style>
<g id="SVGRepo_bgCarrier">
</g>
<g id="SVGRepo_tracerCarrier">
</g>
<g id="SVGRepo_iconCarrier">
	<path class="st0" d="M717.7,386.2l-26-20.8v343h41.7c13.8,0,25,11.2,25,25s-11.2,25-25,25H66.7c-13.8,0-25-11.2-25-25
		s11.2-25,25-25h41.7v-343l-26,20.8c-10.8,8.6-26.5,6.9-35.1-3.9s-6.9-26.5,3.9-35.1l270.9-216.7c45.7-36.5,110.5-36.5,156.2,0
		l270.9,216.7c10.8,8.6,12.5,24.4,3.9,35.1C744.2,393.1,728.5,394.8,717.7,386.2z M458.2,365.7c-15.3-2.7-34.4-2.7-56.5-2.7h-3.3
		c-22.2,0-41.3,0-56.6,2.7c-16.4,2.8-32.1,9.3-44.8,25.8c-12.7,16.4-17.7,36.9-19.9,58c-2.1,19.8-2.1,44.5-2.1,73.2v185.5h50h150h50
		V522.8v-5.3c0-26.4-0.1-49.3-2.1-67.8c-2.2-21.2-7.2-41.6-19.9-58C490.3,375,474.6,368.6,458.2,365.7z"/>
</g>
</svg>
