<?xml version="1.0" encoding="utf-8"?>
<!-- Generator: Adobe Illustrator 25.4.1, SVG Export Plug-In . SVG Version: 6.00 Build 0)  -->
<svg version="1.1" id="Layer_1" xmlns="http://www.w3.org/2000/svg" xmlns:xlink="http://www.w3.org/1999/xlink" x="0px" y="0px"
	 viewBox="0 0 800 800" style="enable-background:new 0 0 800 800;" xml:space="preserve">
<style type="text/css">
	.st0{fill:#EDEDED;stroke:#EDEDED;stroke-width:25;stroke-miterlimit:100;}
</style>
<g id="SVGRepo_bgCarrier">
</g>
<g id="SVGRepo_tracerCarrier">
</g>
<g id="SVGRepo_iconCarrier">
	<path class="st0" d="M144,246.9v305.5c0,28.1,11.7,53.1,30.5,72.7c18.8,18.8,43,28.9,71.1,28.9h153.1v-63.3H245.6
		c-21.1,0-37.5-17.2-37.5-38.3V246.9c0-21.1,16.4-37.5,37.5-37.5h153.1v-64.1H245.6c-28.1,0-52.4,11-71.1,29.7
		C155.7,194.5,144,218.8,144,246.9z M312,339.1v121.9c0,14.1,12.5,25.8,26.6,25.8h141.4v96.1c0,8.6,4.7,15.6,12.5,19.5
		c3.1,0.8,6.2,0.8,7.8,0.8c5.5,0,10.1-1.6,14.1-5.5l183.6-183.6c8.6-7,7.8-21.1,0-28.9L514.3,202.3c-10.9-11.7-34.4-4.7-34.4,14.1
		v96.9H338.6C324.5,313.3,312,325,312,339.1L312,339.1z"/>
</g>
</svg>
