<?xml version="1.0" encoding="utf-8"?>
<!-- Generator: Adobe Illustrator 25.4.1, SVG Export Plug-In . SVG Version: 6.00 Build 0)  -->
<svg version="1.1" id="Uploaded_to_svgrepo.com" xmlns="http://www.w3.org/2000/svg" xmlns:xlink="http://www.w3.org/1999/xlink"
	 x="0px" y="0px" viewBox="0 0 800 800" style="enable-background:new 0 0 800 800;" xml:space="preserve">
<style type="text/css">
	.st0{fill:#FFFFFF;}
</style>
<g id="SVGRepo_bgCarrier">
</g>
<g id="SVGRepo_tracerCarrier">
</g>
<g id="SVGRepo_iconCarrier">
	<path class="st0" d="M481.3,185.3v373.8c0,20.6-14.4,28.7-32.1,18.1l-122.8-73.7c-17.6-10.6-48.9-19.2-69.4-19.2h-18.7
		c-20.6,0-37.4-16.8-37.4-37.4V297.4c0-20.6,16.8-37.4,37.4-37.4h18.7c20.6,0,51.8-8.7,69.4-19.2l122.8-73.7
		C466.9,156.6,481.3,164.8,481.3,185.3z M683.7,372.2l48.3-48.3c14.6-14.6,14.6-38.3,0-52.9c-14.6-14.6-38.3-14.6-52.9,0l-48.3,48.3
		L582.5,271c-14.6-14.6-38.3-14.6-52.9,0c-14.6,14.6-14.6,38.3,0,52.9l48.3,48.3l-48.3,48.3c-14.6,14.6-14.6,38.3,0,52.9
		c7.3,7.3,16.9,11,26.4,11s19.1-3.6,26.4-11l48.3-48.3l48.3,48.3c7.3,7.3,16.9,11,26.4,11c9.6,0,19.1-3.6,26.4-11
		c14.6-14.6,14.6-38.3,0-52.9L683.7,372.2z"/>
</g>
</svg>
