<?xml version="1.0" encoding="utf-8"?>
<!-- Generator: Adobe Illustrator 25.4.1, SVG Export Plug-In . SVG Version: 6.00 Build 0)  -->
<svg version="1.1" id="Layer_1" xmlns="http://www.w3.org/2000/svg" xmlns:xlink="http://www.w3.org/1999/xlink" x="0px" y="0px"
	 viewBox="0 0 800 800" style="enable-background:new 0 0 800 800;" xml:space="preserve">
<style type="text/css">
	.st0{opacity:0.65;fill:#F4F4F4;stroke:#EBEBEB;stroke-width:33.3333;stroke-miterlimit:133.3333;enable-background:new    ;}
	.st1{fill:#F4F4F4;stroke:#EBEBEB;stroke-width:33.3333;stroke-miterlimit:133.3333;}
</style>
<g id="SVGRepo_bgCarrier">
</g>
<g id="SVGRepo_tracerCarrier">
</g>
<g id="SVGRepo_iconCarrier">
	<path class="st0" d="M26.7,427.9v-66.3c0-39.2,32-71.5,71.5-71.5c68.1,0,96-48.2,61.7-107.3c-19.6-33.9-7.9-77.9,26.4-97.5
		L251.4,48c29.7-17.7,68.1-7.2,85.8,22.6l4.1,7.2c33.9,59.1,89.6,59.1,123.9,0l4.1-7.2c17.7-29.7,56.1-40.3,85.8-22.6l65.1,37.3
		c34.3,19.6,45.9,63.6,26.4,97.5c-34.3,59.1-6.4,107.3,61.7,107.3c39.2,0,71.5,32,71.5,71.5v66.3c0,39.2-32,71.5-71.5,71.5
		c-68.1,0-96,48.2-61.7,107.3c19.6,34.3,7.9,77.9-26.4,97.5l-65.1,37.3c-29.7,17.7-68.1,7.2-85.8-22.6l-4.1-7.2
		c-33.9-59.1-89.6-59.1-123.9,0l-4.1,7.2c-17.7,29.7-56.1,40.3-85.8,22.6l-65.1-37.3c-34.3-19.6-45.9-63.6-26.4-97.5
		c34.3-59.1,6.4-107.3-61.7-107.3C58.7,499.4,26.7,467,26.7,427.9z"/>
	<path class="st1" d="M403.1,517.1c67.6,0,122.4-54.8,122.4-122.4s-54.8-122.4-122.4-122.4s-122.4,54.8-122.4,122.4
		S335.6,517.1,403.1,517.1z"/>
</g>
</svg>
