<?xml version="1.0" encoding="utf-8"?>
<!-- Generator: Adobe Illustrator 25.4.1, SVG Export Plug-In . SVG Version: 6.00 Build 0)  -->
<svg version="1.1" id="Layer_1" xmlns="http://www.w3.org/2000/svg" xmlns:xlink="http://www.w3.org/1999/xlink" x="0px" y="0px"
	 viewBox="0 0 800 800" style="enable-background:new 0 0 800 800;" xml:space="preserve">
<style type="text/css">
	.st0{opacity:0.5;fill:#DBDBDB;stroke:#F5F5F5;stroke-width:33.3333;stroke-miterlimit:133.3333;enable-background:new    ;}
	.st1{fill:#DBDBDB;stroke:#F5F5F5;stroke-width:33.3333;stroke-miterlimit:133.3333;}
</style>
<g id="SVGRepo_bgCarrier">
</g>
<g id="SVGRepo_iconCarrier">
	<path class="st0" d="M733.3,400c0,184.1-149.2,333.3-333.3,333.3C215.9,733.3,66.7,584.1,66.7,400C66.7,215.9,215.9,66.7,400,66.7
		C584.1,66.7,733.3,215.9,733.3,400z"/>
	<path class="st1" d="M560.2,633.7C514.7,665,459.5,683.3,400,683.3S285.3,665,239.8,633.7c-20.1-13.8-28.7-40.2-17-61.6
		C247,527.7,297,500,400,500c103,0,153,27.7,177.3,72.1C589,593.5,580.4,619.9,560.2,633.7z"/>
	<path class="st1" d="M400,400c55.2,0,100-44.8,100-100c0-55.2-44.8-100-100-100c-55.2,0-100,44.8-100,100
		C300,355.2,344.8,400,400,400z"/>
</g>
<g id="SVGRepo_tracerCarrier">
</g>
</svg>
