<svg xmlns="http://www.w3.org/2000/svg" xmlns:xlink="http://www.w3.org/1999/xlink" viewBox="0 0 711.38 787.73"><defs><style>.cls-1{fill:none;stroke:#009245;stroke-miterlimit:10;}.cls-2{fill:url(#radial-gradient);}.cls-3{fill:url(#radial-gradient-2);}.cls-4{fill:url(#radial-gradient-3);}.cls-5{fill:url(#radial-gradient-4);}.cls-6{fill:url(#radial-gradient-5);}.cls-7{fill:url(#radial-gradient-6);}.cls-8{fill:url(#radial-gradient-7);}.cls-9{fill:url(#radial-gradient-8);}.cls-10{fill:url(#radial-gradient-9);}.cls-11{fill:url(#radial-gradient-10);}.cls-12{fill:url(#radial-gradient-11);}.cls-13{fill:url(#radial-gradient-12);}.cls-14{fill:url(#radial-gradient-13);}.cls-15{fill:url(#radial-gradient-14);}.cls-16{fill:url(#radial-gradient-15);}.cls-17{fill:url(#radial-gradient-16);}</style><radialGradient id="radial-gradient" cx="360.26" cy="393.87" r="355.85" gradientUnits="userSpaceOnUse"><stop offset="0" stop-color="#07160e"/><stop offset="0.53" stop-color="#006837"/><stop offset="1" stop-color="#7ac943"/></radialGradient><radialGradient id="radial-gradient-2" cx="60.32" cy="229.47" r="14.74" xlink:href="#radial-gradient"/><radialGradient id="radial-gradient-3" cx="14.74" cy="390.96" r="14.74" xlink:href="#radial-gradient"/><radialGradient id="radial-gradient-4" cx="105.13" cy="315.81" r="14.74" xlink:href="#radial-gradient"/><radialGradient id="radial-gradient-5" cx="247.98" cy="208.28" r="14.74" xlink:href="#radial-gradient"/><radialGradient id="radial-gradient-6" cx="22.79" cy="555.26" r="14.74" xlink:href="#radial-gradient"/><radialGradient id="radial-gradient-7" cx="696.64" cy="274.73" r="14.74" xlink:href="#radial-gradient"/><radialGradient id="radial-gradient-8" cx="696.64" cy="436.15" r="14.74" xlink:href="#radial-gradient"/><radialGradient id="radial-gradient-9" cx="657.19" cy="605.05" r="14.74" xlink:href="#radial-gradient"/><radialGradient id="radial-gradient-10" cx="613.53" cy="516.77" r="14.74" xlink:href="#radial-gradient"/><radialGradient id="radial-gradient-11" cx="472.79" cy="619.79" r="14.74" xlink:href="#radial-gradient"/><radialGradient id="radial-gradient-12" cx="352.98" cy="239.37" r="14.74" xlink:href="#radial-gradient"/><radialGradient id="radial-gradient-13" cx="560.94" cy="691.15" r="14.74" xlink:href="#radial-gradient"/><radialGradient id="radial-gradient-14" cx="144" cy="159.84" r="14.74" xlink:href="#radial-gradient"/><radialGradient id="radial-gradient-15" cx="105.13" cy="705.9" r="14.74" xlink:href="#radial-gradient"/><radialGradient id="radial-gradient-16" cx="633.39" cy="145.09" r="14.74" xlink:href="#radial-gradient"/></defs><g id="Layer_2" data-name="Layer 2"><g id="Layer_1-2" data-name="Layer 1"><path class="cls-1" d="M696.64,436.15Q677.29,519,658,601.79l-97,89.36L105.13,705.9l-86-152.36L14.74,391q22.8-80.74,45.58-161.49L144,159.84l491.74-12.26,60.9,127.15Z"/><path class="cls-1" d="M693.64,437.62l-77.81,77.11L656,600.26,474.51,620.18,608.74,518.69q-24.29,83.87-48.59,167.74L468.77,623.5,347,576,110.3,701.11Q69.19,625.28,28.09,549.45l132-199.66L21.45,391.54l77-68.17q-17.06-44-34.09-88.09l175-22.21-130,98.81L143,169.22,248,208.28l95.17,29.94"/><path class="cls-2" d="M669.83,282C630.05,61.07,266.05-37.82,227.49,13.13c-18.91,25,22,110.37,73.53,154,15.71,13.3,42.86,31.58,78.13,68.94,15.4,16.31,27,30.64,34.47,40.21-12.11-5.69-122.27-55.17-233.24,4.6C93.82,327.48,44.44,421.82,47.11,507.2c6,191.64,286,260.53,310.21,266.55,68.89,17.15,155,21.28,164.3-3.45,6.79-18-30.23-43.39-131-139.45-35.59-33.93-63.89-62.15-81.58-80a233.4,233.4,0,0,0,79.28,26.42c82.2,11.46,173.26-22.41,229.79-93.06C665.51,425,681.55,347.11,669.83,282ZM313,333.71a100.17,100.17,0,0,1,41.11-16.34c9.7-1.48,32.82-5,55.4,8.17,6.35,3.7,15.18,8.49,21.19,18.89,7.56,13.07,7.43,28.89,5.62,29.36-.79.21-1.91-2.54-4.08-6.64a136.92,136.92,0,0,0-18.13-25c-13.88-15.15-44.11-14.62-61.53-11C334,335,322.44,344,304.09,358.22c-7.26,5.61-17.69,13.69-22.22,24-.45,1-1.56,3.71-2,3.57-1-.26.4-11.79,3.57-20.42C289.29,349.34,302.34,340.75,313,333.71Zm94.85,96.13C403.26,441.73,394.3,448,388,452.43c-8.31,5.81-22.66,15.85-39.83,11.87-17.43-4-26-19.75-28.34-24.12-1.77-3.26-11.48-22-3.45-42.9,9.49-24.73,35.43-30.86,41-32.17,7.41-1.75,21.32-5,33.32,2.68,10.37,6.67,13.57,17.85,16.47,28C409.57,404.33,413.05,416.5,407.87,429.84Zm-184.37-87a44.94,44.94,0,0,1,8.91-13.6,54.8,54.8,0,0,1,13-10.31c17.36-10.3,44.37-21.52,48.49-23.22-3.92,3.57-10.36,9.4-18.47,16.48-14.57,12.74-20.68,17.44-32.1,27.59-5.36,4.76-13.43,12.09-23.1,21.55A43.83,43.83,0,0,1,223.5,342.85ZM186.34,485.26c2.57,20.3,9,35,18.2,56a372.54,372.54,0,0,0,24.33,46.41c2.62,11-.57,21.31-7.41,25.15-7.38,4.15-16.64-.55-20.56-2.53-10.54-5.35-15.94-14.41-18.15-18.36-28-50.17-29.09-94.77-29.09-94.77-1.2-50.94,18-89.91,29-108.73l7.77,40.64A145.48,145.48,0,0,0,186.34,485.26ZM200.69,374A86.5,86.5,0,0,0,204,389.09l-5.24,13.05a57.46,57.46,0,0,1-5.51-32.77l6.74-9.2A87.35,87.35,0,0,0,200.69,374Zm127.24,220.1c8.6,11.32,13.5,21.41,21.16,37.39,14.92,31.11,16.72,43.79,23.5,58.66,23,50.52,74,61.32,70.75,70.31-4.67,13.11-117.89,4.13-223.81-60.17-53.78-32.65-107-65-130.32-132.5-26.43-76.59.25-156.17,36.45-203.3,25.36-33,66.16-64.13,73-58.41,3.9,3.24-3.22,18.28-9.78,30.38-15.62,13-50.28,45.6-65.26,99.06-23,81.93,18,149.57,30.29,169.8,4.25,7,48.16,77.25,126.53,99.22,8.49,2.37,42,11.75,50.47-.52,2.9-4.21,3-11-19.32-55.75-12.51-25.13-18.76-37.69-26.19-49.53-27.26-43.44-36-37.46-50.83-65.28-26.46-49.59-15.48-99.93-14-106.33a145.86,145.86,0,0,1,15.91-40q6.36,31.54,12.7,63.08c-2.8,60.9,13.39,88.78,29.69,102.88C292.4,564.8,309.64,570,327.93,594.11Zm46.48-92.32c-9.16,3.53-31,11.94-55.86,3.93-7-2.25-16.65-5-24.76-13.9C283.6,480.68,280.33,465.2,282,464.35c.73-.37,2.4,2.08,5.41,5.61a136.84,136.84,0,0,0,23.08,20.54c16.81,11.82,46.22,4.8,62.46-2.5,17.29-7.78,26.69-19,41.56-36.85,5.88-7,14.33-17.18,16.54-28.22.22-1.1.72-3.95,1.22-3.93,1,.06,2.14,11.61.9,20.72-2.31,16.92-13.2,28.11-22.12,37.28A100.14,100.14,0,0,1,374.41,501.79Zm35.63,22c17-9.3,23.95-12.59,37.28-20,6.26-3.5,15.72-8.93,27.19-16.08A43.87,43.87,0,0,1,467.36,505a44.82,44.82,0,0,1-11.62,11.36,54.68,54.68,0,0,1-14.93,7.28c-19.17,6.32-48,11.47-52.34,12.25C393.06,533.28,400.6,529,410,523.79Zm54.77,24.77A37,37,0,0,1,451,556.47a34.61,34.61,0,0,1-11,1.41c-27.5.6-33.69.43-33.7.13s3.17-.46,13.66-1.66c8.78-1,13.21-1.52,14.94-1.92,7.76-1.79,11.82-5.47,19.53-11a228,228,0,0,1,26.17-16.08A59.55,59.55,0,0,1,464.81,548.56ZM567.57,504.9c-31.86,26.8-78.39,48.42-83.87,41.36-3.11-4,7.08-17.17,16.09-27.57,18.05-9.37,58.9-33.74,85-82.73,40-75.08,14.52-149.95,6.89-172.34-2.64-7.76-30.43-85.79-102.25-124.08C481.67,135.39,450.93,119,440,129.2c-3.73,3.49-5.25,10.09,6.9,58.59,6.81,27.23,10.22,40.85,14.93,54,17.29,48.29,27.1,44.32,35.62,74.68,15.19,54.12-6.36,100.92-9.19,106.85a145.7,145.7,0,0,1-24.13,35.62q.57-32.16,1.15-64.34c15.82-58.87,6-89.57-6.89-106.85-10.67-14.29-26.38-23.12-39.07-50.55-6-12.91-8.59-23.82-12.64-41.07-7.88-33.59-6.91-46.36-10.34-62.34-11.64-54.29-59.06-75.77-54-83.87,7.39-11.8,116,21.3,205.66,106.85,45.51,43.44,90.56,86.45,98.81,157.41C656.21,394.66,613.05,466.65,567.57,504.9Zm-71.23-40.85,7.92-11.62a57.43,57.43,0,0,1-1.66,33.19L494,493.15a87.84,87.84,0,0,0,2.3-29.1Zm32.17-148.73a373.1,373.1,0,0,0-13.79-50.55c-.19-11.33,5.14-20.69,12.64-23,8.1-2.46,16.14,4.12,19.53,6.9,9.15,7.49,12.48,17.49,13.79,21.83,16.6,55,8,98.8,8,98.8-9.77,50-36.86,83.95-51.7,100q.57-20.67,1.15-41.36a145.75,145.75,0,0,0,16.09-54C536.11,353.54,533,337.81,528.51,315.32Z"/><rect class="cls-3" x="45.57" y="214.73" width="29.49" height="29.49" rx="14.74"/><rect class="cls-4" y="376.22" width="29.49" height="29.49" rx="14.74"/><rect class="cls-5" x="90.38" y="301.06" width="29.49" height="29.49" rx="14.74"/><rect class="cls-6" x="233.23" y="193.54" width="29.49" height="29.49" rx="14.74"/><rect class="cls-7" x="8.04" y="540.52" width="29.49" height="29.49" rx="14.74"/><rect class="cls-8" x="681.89" y="259.98" width="29.49" height="29.49" rx="14.74"/><rect class="cls-9" x="681.89" y="421.41" width="29.49" height="29.49" rx="14.74"/><rect class="cls-10" x="642.45" y="590.3" width="29.49" height="29.49" rx="14.74"/><rect class="cls-11" x="598.79" y="502.03" width="29.49" height="29.49" rx="14.74"/><rect class="cls-12" x="458.04" y="605.05" width="29.49" height="29.49" rx="14.74"/><rect class="cls-13" x="338.23" y="224.62" width="29.49" height="29.49" rx="14.74"/><rect class="cls-14" x="546.19" y="676.41" width="29.49" height="29.49" rx="14.74"/><rect class="cls-15" x="129.26" y="145.09" width="29.49" height="29.49" rx="14.74"/><rect class="cls-16" x="90.38" y="691.15" width="29.49" height="29.49" rx="14.74"/><rect class="cls-17" x="618.65" y="130.35" width="29.49" height="29.49" rx="14.74"/></g></g></svg>